<?xml version="1.0" encoding="UTF-8"?>
<svg xmlns="http://www.w3.org/2000/svg" width="640" height="420" viewBox="0 0 640 420">
  <defs>
    <linearGradient id="bg" x1="0" x2="1" y1="0" y2="1">
      <stop offset="0" stop-color="#ffe3a8"/>
      <stop offset="1" stop-color="#f8f5ed"/>
    </linearGradient>
    <filter id="shadow" x="-30%" y="-30%" width="160%" height="160%">
      <feDropShadow dx="0" dy="16" stdDeviation="14" flood-opacity=".22"/>
    </filter>
  </defs>
  <rect width="640" height="420" rx="28" fill="url(#bg)"/>
  <path d="M0 332 C126 286 216 348 338 300 C468 250 552 292 640 248 L640 420 L0 420 Z" fill="#f4b942" opacity=".16"/>
  <g stroke="#ffffff" stroke-opacity=".45" stroke-width="2">
    <path d="M72 70h496M72 140h496M72 210h496M72 280h496"/>
    <path d="M120 42v310M240 42v310M360 42v310M480 42v310"/>
  </g>
  <g filter="url(#shadow)"><path d="M212 104h216v36H212z" fill="#f4b942"/><circle cx="320" cy="86" r="24" fill="#1a1710"/><g stroke="#1a1710" stroke-linecap="round" stroke-linejoin="round" fill="none" stroke-width="18"><path d="M320 110v142M320 252l-46 98M320 252l48 98M286 146L232 112M354 146L408 112"/></g><path d="M240 360h90M354 350h92" stroke="#1a1710" stroke-width="12" stroke-linecap="round"/></g>
  <g>
    <rect x="28" y="28" width="254" height="66" rx="18" fill="#ffffff" opacity=".88"/>
    <text x="48" y="56" font-family="Arial, sans-serif" font-size="22" font-weight="800" fill="#17191c">Elevacion gemelo</text>
    <text x="48" y="78" font-family="Arial, sans-serif" font-size="15" font-weight="700" fill="#f4b942">Gemelo - Maquina</text>
  </g>
</svg>