<?xml version="1.0" encoding="UTF-8"?>
<svg xmlns="http://www.w3.org/2000/svg" width="640" height="420" viewBox="0 0 640 420">
  <defs>
    <linearGradient id="bg" x1="0" x2="1" y1="0" y2="1">
      <stop offset="0" stop-color="#cfe0fb"/>
      <stop offset="1" stop-color="#f8f5ed"/>
    </linearGradient>
    <filter id="shadow" x="-30%" y="-30%" width="160%" height="160%">
      <feDropShadow dx="0" dy="16" stdDeviation="14" flood-opacity=".22"/>
    </filter>
  </defs>
  <rect width="640" height="420" rx="28" fill="url(#bg)"/>
  <path d="M0 332 C126 286 216 348 338 300 C468 250 552 292 640 248 L640 420 L0 420 Z" fill="#4285f4" opacity=".16"/>
  <g stroke="#ffffff" stroke-opacity=".45" stroke-width="2">
    <path d="M72 70h496M72 140h496M72 210h496M72 280h496"/>
    <path d="M120 42v310M240 42v310M360 42v310M480 42v310"/>
  </g>
  <g filter="url(#shadow)"><path d="M520 156L344 156" stroke="#4285f4" stroke-width="6" stroke-dasharray="8 8" stroke-linecap="round"/><circle cx="300" cy="152" r="24" fill="#111722"/><g stroke="#111722" stroke-linecap="round" stroke-linejoin="round" fill="none" stroke-width="18"><path d="M300 176v106M286 198L344 156M314 198L344 188M300 282l-50 82M300 282l54 82"/></g><circle cx="520" cy="156" r="22" fill="#4285f4"/></g>
  <g>
    <rect x="28" y="28" width="254" height="66" rx="18" fill="#ffffff" opacity=".88"/>
    <text x="48" y="56" font-family="Arial, sans-serif" font-size="22" font-weight="800" fill="#17191c">Face pull</text>
    <text x="48" y="78" font-family="Arial, sans-serif" font-size="15" font-weight="700" fill="#4285f4">Hombro - Polea</text>
  </g>
</svg>